HIERARCHY
ROOT f_mosh_cmu05_0511_root
{
	OFFSET 0.000000 0.000000 0.000000
	CHANNELS 6 Xposition Yposition Zposition Xrotation Yrotation Zrotation
	JOINT f_mosh_cmu05_0511_Pelvis
	{
		OFFSET -0.000601 0.952033 0.027903
		CHANNELS 6 Xposition Yposition Zposition Xrotation Yrotation Zrotation
		JOINT f_mosh_cmu05_0511_L_Hip
		{
			OFFSET 0.073203 -0.089583 -0.008451
			CHANNELS 6 Xposition Yposition Zposition Xrotation Yrotation Zrotation
			JOINT f_mosh_cmu05_0511_L_Knee
			{
				OFFSET 0.033363 -0.381093 -0.005882
				CHANNELS 6 Xposition Yposition Zposition Xrotation Yrotation Zrotation
				JOINT f_mosh_cmu05_0511_L_Ankle
				{
					OFFSET -0.012136 -0.404212 -0.045073
					CHANNELS 6 Xposition Yposition Zposition Xrotation Yrotation Zrotation
					JOINT f_mosh_cmu05_0511_L_Foot
					{
						OFFSET 0.023998 -0.057168 0.116177
						CHANNELS 6 Xposition Yposition Zposition Xrotation Yrotation Zrotation
						End Site
						{
							OFFSET 0.000000 0.131686 0.000000
						}
					}
				}
			}
		}
		JOINT f_mosh_cmu05_0511_R_Hip
		{
			OFFSET -0.071051 -0.088940 -0.004460
			CHANNELS 6 Xposition Yposition Zposition Xrotation Yrotation Zrotation
			JOINT f_mosh_cmu05_0511_R_Knee
			{
				OFFSET -0.040159 -0.388281 -0.008116
				CHANNELS 6 Xposition Yposition Zposition Xrotation Yrotation Zrotation
				JOINT f_mosh_cmu05_0511_R_Ankle
				{
					OFFSET 0.015052 -0.405159 -0.042521
					CHANNELS 6 Xposition Yposition Zposition Xrotation Yrotation Zrotation
					JOINT f_mosh_cmu05_0511_R_Foot
					{
						OFFSET -0.022162 -0.049535 0.120046
						CHANNELS 6 Xposition Yposition Zposition Xrotation Yrotation Zrotation
						End Site
						{
							OFFSET 0.000000 0.131742 0.000000
						}
					}
				}
			}
		}
		JOINT f_mosh_cmu05_0511_Spine1
		{
			OFFSET -0.002105 0.102865 -0.021646
			CHANNELS 6 Xposition Yposition Zposition Xrotation Yrotation Zrotation
			JOINT f_mosh_cmu05_0511_Spine2
			{
				OFFSET 0.003214 0.123188 -0.000947
				CHANNELS 6 Xposition Yposition Zposition Xrotation Yrotation Zrotation
				JOINT f_mosh_cmu05_0511_Spine3
				{
					OFFSET 0.001655 0.048352 0.025579
					CHANNELS 6 Xposition Yposition Zposition Xrotation Yrotation Zrotation
					JOINT f_mosh_cmu05_0511_Neck
					{
						OFFSET -0.003113 0.213543 -0.049645
						CHANNELS 6 Xposition Yposition Zposition Xrotation Yrotation Zrotation
						JOINT f_mosh_cmu05_0511_Head
						{
							OFFSET 0.004221 0.064949 0.050387
							CHANNELS 6 Xposition Yposition Zposition Xrotation Yrotation Zrotation
							End Site
							{
								OFFSET 0.000000 0.082311 0.000000
							}
						}
					}
					JOINT f_mosh_cmu05_0511_L_Collar
					{
						OFFSET 0.077248 0.119321 -0.035930
						CHANNELS 6 Xposition Yposition Zposition Xrotation Yrotation Zrotation
						JOINT f_mosh_cmu05_0511_L_Shoulder
						{
							OFFSET 0.087504 0.033302 -0.007308
							CHANNELS 6 Xposition Yposition Zposition Xrotation Yrotation Zrotation
							JOINT f_mosh_cmu05_0511_L_Elbow
							{
								OFFSET 0.261485 -0.013777 -0.026078
								CHANNELS 6 Xposition Yposition Zposition Xrotation Yrotation Zrotation
								JOINT f_mosh_cmu05_0511_L_Wrist
								{
									OFFSET 0.244240 0.009760 -0.000379
									CHANNELS 6 Xposition Yposition Zposition Xrotation Yrotation Zrotation
									JOINT f_mosh_cmu05_0511_L_Hand
									{
										OFFSET 0.078627 -0.009693 -0.013014
										CHANNELS 6 Xposition Yposition Zposition Xrotation Yrotation Zrotation
										End Site
										{
											OFFSET 0.000000 0.080284 0.000000
										}
									}
								}
							}
						}
					}
					JOINT f_mosh_cmu05_0511_R_Collar
					{
						OFFSET -0.079384 0.117390 -0.040553
						CHANNELS 6 Xposition Yposition Zposition Xrotation Yrotation Zrotation
						JOINT f_mosh_cmu05_0511_R_Shoulder
						{
							OFFSET -0.090012 0.035653 -0.009674
							CHANNELS 6 Xposition Yposition Zposition Xrotation Yrotation Zrotation
							JOINT f_mosh_cmu05_0511_R_Elbow
							{
								OFFSET -0.255036 -0.015794 -0.019774
								CHANNELS 6 Xposition Yposition Zposition Xrotation Yrotation Zrotation
								JOINT f_mosh_cmu05_0511_R_Wrist
								{
									OFFSET -0.251954 0.008889 -0.004499
									CHANNELS 6 Xposition Yposition Zposition Xrotation Yrotation Zrotation
									JOINT f_mosh_cmu05_0511_R_Hand
									{
										OFFSET -0.079647 -0.007301 -0.010293
										CHANNELS 6 Xposition Yposition Zposition Xrotation Yrotation Zrotation
										End Site
										{
											OFFSET 0.000000 0.080641 0.000000
										}
									}
								}
							}
						}
					}
				}
			}
		}
	}
}
MOTION
Frames: 8
Frame Time: 0.041667
0.000000 0.000000 0.000000 -90.000009 0.000000 -0.000000 1.473132 0.341235 0.914319 97.041586 -25.604537 3.834636 0.073203 -0.089583 -0.008451 -2.973983 16.435694 15.576414 0.033363 -0.381093 -0.005881 -0.424846 3.642974 2.241902 -0.012136 -0.404212 -0.045073 14.277465 28.353941 -11.874901 0.023998 -0.057168 0.116177 -10.942982 -9.329902 12.086606 -0.071051 -0.088940 -0.004460 -23.081793 -4.972306 1.312262 -0.040159 -0.388281 -0.008116 21.597630 5.498520 4.951607 0.015052 -0.405159 -0.042521 -8.878672 -25.627686 0.437393 -0.022162 -0.049535 0.120046 4.059628 13.178445 -9.082068 -0.002105 0.102865 -0.021646 4.722949 -1.201641 -3.059453 0.003214 0.123188 -0.000947 -5.027337 -0.064929 0.143912 0.001655 0.048352 0.025579 -1.621327 1.250523 -0.491868 -0.003113 0.213543 -0.049645 -10.839905 -8.452351 -4.671625 0.004221 0.064949 0.050387 7.823414 -11.896646 4.749939 0.077248 0.119321 -0.035930 -7.256363 5.041329 -3.438028 0.087504 0.033302 -0.007308 -14.755070 -12.489027 -1.824167 0.261485 -0.013777 -0.026078 4.535392 4.676797 2.827057 0.244240 0.009760 -0.000379 36.268438 5.804919 -13.774900 0.078627 -0.009693 -0.013014 -14.009987 -11.811117 -8.133716 -0.079384 0.117390 -0.040553 -5.863657 4.542390 17.102978 -0.090012 0.035653 -0.009674 -18.191874 15.382213 10.006727 -0.255036 -0.015794 -0.019774 -3.955052 -6.620906 -8.160183 -0.251954 0.008889 -0.004499 24.982090 -10.236164 5.829424 -0.079647 -0.007301 -0.010293 -8.997079 9.679118 12.327118 
0.000000 0.000000 0.000000 -90.000009 0.000000 -0.000000 1.465332 0.342514 0.925033 97.066639 -26.200102 3.922788 0.073203 -0.089583 -0.008451 -2.053631 15.774296 13.736707 0.033363 -0.381093 -0.005881 -0.905143 3.561091 1.941484 -0.012136 -0.404212 -0.045073 14.677038 28.273068 -11.862358 0.023998 -0.057168 0.116177 -10.684251 -9.181728 12.103765 -0.071051 -0.088940 -0.004460 -21.310595 -4.902542 1.935842 -0.040159 -0.388281 -0.008116 18.379549 5.635881 4.745145 0.015052 -0.405159 -0.042521 -5.118925 -25.449514 2.398662 -0.022162 -0.049535 0.120046 3.272689 13.148997 -9.526941 -0.002105 0.102865 -0.021646 4.372610 -0.962303 -3.331702 0.003214 0.123188 -0.000947 -4.849927 -0.281800 0.368134 0.001655 0.048351 0.025579 -1.487170 1.267361 -0.413333 -0.003113 0.213543 -0.049645 -9.996195 -8.647383 -4.564791 0.004221 0.064949 0.050387 7.440344 -11.179573 4.953836 0.077248 0.119321 -0.035930 -7.033435 5.505559 -3.213607 0.087504 0.033302 -0.007308 -14.573165 -12.322230 -1.916038 0.261485 -0.013777 -0.026079 4.607021 4.713868 2.821784 0.244240 0.009760 -0.000379 35.982198 5.498153 -13.270684 0.078627 -0.009693 -0.013014 -13.646586 -11.511830 -7.579067 -0.079384 0.117390 -0.040553 -5.739422 4.003251 16.711735 -0.090012 0.035653 -0.009674 -18.195159 15.606277 10.026793 -0.255036 -0.015795 -0.019774 -4.277829 -6.617629 -8.377744 -0.251954 0.008889 -0.004499 25.152481 -9.786848 5.447381 -0.079647 -0.007301 -0.010293 -8.843032 9.384548 12.047274 
0.000000 0.000000 0.000000 -90.000009 0.000000 -0.000000 1.457426 0.343881 0.935694 97.056203 -26.767356 3.982605 0.073203 -0.089582 -0.008451 -1.306077 15.148496 11.989543 0.033363 -0.381093 -0.005881 -1.339013 3.422527 1.527284 -0.012136 -0.404212 -0.045073 15.781313 28.254811 -12.281664 0.023998 -0.057168 0.116177 -10.733573 -9.333855 12.164530 -0.071051 -0.088940 -0.004460 -19.656883 -4.967384 2.449340 -0.040159 -0.388281 -0.008116 15.374262 5.662429 4.574352 0.015052 -0.405159 -0.042521 -0.854923 -25.120847 5.019093 -0.022162 -0.049535 0.120046 2.149037 13.268003 -10.698330 -0.002105 0.102865 -0.021646 4.149518 -0.680678 -3.593826 0.003214 0.123188 -0.000947 -4.823797 -0.460634 0.531918 0.001655 0.048352 0.025579 -1.273684 1.332791 -0.327846 -0.003113 0.213544 -0.049645 -9.358803 -9.131052 -4.603793 0.004221 0.064949 0.050387 7.310042 -10.528796 5.354527 0.077248 0.119321 -0.035930 -6.734830 5.818714 -2.963795 0.087504 0.033302 -0.007308 -14.518032 -12.290960 -2.071974 0.261485 -0.013777 -0.026079 4.642629 4.939573 2.760151 0.244240 0.009760 -0.000379 35.603409 5.147170 -12.750298 0.078627 -0.009693 -0.013014 -13.246617 -11.173110 -7.015044 -0.079384 0.117390 -0.040553 -5.712582 3.510307 16.215690 -0.090012 0.035653 -0.009675 -18.240567 15.594630 10.183773 -0.255036 -0.015795 -0.019774 -4.789009 -6.796571 -8.609074 -0.251954 0.008889 -0.004499 25.519871 -9.391632 5.210182 -0.079647 -0.007301 -0.010293 -8.812156 9.092955 11.806119 
0.000000 0.000000 0.000000 -90.000009 0.000000 -0.000000 1.449638 0.345645 0.946461 97.149981 -27.201225 4.124252 0.073203 -0.089583 -0.008451 -0.861323 14.348569 10.241414 0.033363 -0.381093 -0.005881 -1.654918 2.876876 1.139674 -0.012136 -0.404212 -0.045073 17.388777 28.270684 -13.105291 0.023998 -0.057168 0.116177 -10.966716 -9.864134 12.582345 -0.071051 -0.088940 -0.004460 -18.146098 -5.062735 3.064056 -0.040159 -0.388281 -0.008116 12.326802 5.685633 4.153270 0.015052 -0.405159 -0.042521 3.605598 -25.186900 7.835524 -0.022162 -0.049535 0.120046 1.115264 13.874916 -12.753626 -0.002105 0.102865 -0.021646 4.065662 -0.316356 -3.857515 0.003214 0.123188 -0.000947 -5.020681 -0.677568 0.609155 0.001655 0.048352 0.025579 -1.090277 1.437896 -0.229073 -0.003113 0.213544 -0.049645 -8.765615 -10.065591 -5.002373 0.004221 0.064949 0.050388 7.374848 -9.632828 6.093309 0.077248 0.119321 -0.035930 -6.341722 5.942145 -2.870704 0.087504 0.033302 -0.007308 -14.485742 -12.432735 -2.099304 0.261485 -0.013777 -0.026078 4.622090 5.251671 2.614908 0.244240 0.009760 -0.000379 35.025203 4.830584 -12.203126 0.078626 -0.009693 -0.013014 -12.726078 -10.972027 -6.717704 -0.079383 0.117390 -0.040553 -5.880850 2.910997 15.581591 -0.090012 0.035653 -0.009674 -18.153886 15.290044 10.494283 -0.255036 -0.015794 -0.019774 -5.410585 -6.855403 -8.729992 -0.251954 0.008889 -0.004499 25.833022 -9.091848 5.029126 -0.079647 -0.007301 -0.010293 -8.858184 9.024901 11.857644 
0.000000 0.000000 0.000000 -90.000009 0.000000 -0.000000 1.442197 0.347594 0.957032 97.246717 -27.723726 4.270141 0.073203 -0.089582 -0.008451 -0.489627 13.542920 8.485312 0.033363 -0.381093 -0.005881 -1.966986 2.050738 0.816862 -0.012136 -0.404212 -0.045073 19.114843 28.276778 -14.299987 0.023998 -0.057168 0.116177 -11.398402 -10.781278 13.456879 -0.071051 -0.088940 -0.004460 -16.984536 -5.223321 3.528044 -0.040159 -0.388281 -0.008116 9.773411 5.628858 3.890087 0.015052 -0.405159 -0.042521 8.099477 -25.371463 10.890286 -0.022162 -0.049535 0.120046 0.328222 15.085446 -15.281964 -0.002105 0.102865 -0.021646 4.053005 0.042500 -4.060594 0.003214 0.123188 -0.000947 -5.370432 -0.902606 0.622178 0.001655 0.048352 0.025579 -0.775557 1.627682 -0.131384 -0.003113 0.213543 -0.049645 -8.429802 -10.855223 -5.826274 0.004221 0.064949 0.050387 7.582748 -8.367684 7.200592 0.077248 0.119321 -0.035930 -5.949073 6.003495 -2.791281 0.087504 0.033302 -0.007308 -14.412394 -12.599448 -2.121648 0.261485 -0.013777 -0.026078 4.508013 5.649397 2.410526 0.244240 0.009760 -0.000379 34.133782 4.491357 -11.617593 0.078627 -0.009693 -0.013014 -12.296043 -10.893229 -6.767760 -0.079383 0.117390 -0.040553 -6.066099 2.465574 15.030796 -0.090012 0.035653 -0.009674 -17.988087 14.967504 10.721608 -0.255036 -0.015795 -0.019774 -6.341041 -6.900668 -8.808883 -0.251954 0.008889 -0.004499 25.741890 -8.808646 4.808676 -0.079647 -0.007301 -0.010293 -8.906882 9.092576 12.119380 
0.000000 0.000000 0.000000 -90.000009 0.000000 -0.000000 1.434988 0.349545 0.967193 97.236936 -28.311740 4.322867 0.073203 -0.089583 -0.008451 -0.064226 12.825201 6.769532 0.033363 -0.381093 -0.005881 -2.431200 1.152810 0.536419 -0.012136 -0.404212 -0.045073 20.896904 28.255996 -15.757550 0.023998 -0.057168 0.116177 -11.872361 -12.051625 14.498390 -0.071051 -0.088940 -0.004459 -15.915338 -5.404258 3.928082 -0.040159 -0.388281 -0.008116 7.508203 5.424796 3.703451 0.015052 -0.405159 -0.042521 12.530737 -25.494987 14.233579 -0.022162 -0.049535 0.120046 -0.181335 16.757574 -18.111710 -0.002105 0.102865 -0.021646 3.992774 0.384076 -4.175894 0.003214 0.123188 -0.000947 -5.620881 -1.119913 0.615062 0.001655 0.048352 0.025579 -0.317772 1.852813 -0.044037 -0.003113 0.213543 -0.049645 -8.404840 -11.431798 -6.942015 0.004221 0.064949 0.050387 7.929050 -7.037909 8.513374 0.077248 0.119321 -0.035930 -5.516962 5.994686 -2.593741 0.087504 0.033302 -0.007308 -14.386617 -12.671423 -2.368484 0.261485 -0.013777 -0.026078 4.279285 6.089425 2.332739 0.244240 0.009760 -0.000379 33.057426 4.158959 -11.087181 0.078626 -0.009693 -0.013014 -12.067092 -10.842669 -6.986814 -0.079384 0.117390 -0.040553 -6.081935 2.345660 14.540207 -0.090012 0.035653 -0.009674 -17.950644 14.636960 10.836817 -0.255036 -0.015794 -0.019774 -7.682199 -7.187902 -8.973431 -0.251954 0.008889 -0.004499 25.272345 -8.440520 4.692997 -0.079647 -0.007301 -0.010293 -8.899124 9.134270 12.390713 
0.000000 0.000000 0.000000 -90.000009 0.000000 -0.000000 1.427861 0.351637 0.976844 97.208215 -28.889170 4.285628 0.073203 -0.089582 -0.008451 0.179471 12.137697 5.232921 0.033363 -0.381093 -0.005881 -2.808876 0.483477 0.287744 -0.012136 -0.404212 -0.045073 22.703245 27.981463 -17.177875 0.023998 -0.057168 0.116177 -12.337036 -13.205173 15.203021 -0.071051 -0.088940 -0.004460 -14.882707 -5.508453 4.395977 -0.040159 -0.388282 -0.008116 5.357076 5.029374 3.392696 0.015052 -0.405159 -0.042521 17.182089 -25.142543 17.792556 -0.022162 -0.049535 0.120046 -0.633915 18.251314 -20.900519 -0.002105 0.102865 -0.021646 3.981424 0.691505 -4.206923 0.003214 0.123188 -0.000947 -5.870285 -1.306643 0.634271 0.001655 0.048351 0.025579 0.123230 2.072589 0.066848 -0.003113 0.213543 -0.049645 -8.177569 -12.087977 -7.944336 0.004221 0.064949 0.050387 8.063681 -5.843609 9.701752 0.077248 0.119321 -0.035930 -5.108692 5.984911 -2.309081 0.087504 0.033302 -0.007308 -14.236011 -12.669494 -2.790159 0.261485 -0.013777 -0.026079 3.992794 6.324198 2.286650 0.244240 0.009760 -0.000379 31.729907 3.968799 -10.602093 0.078627 -0.009693 -0.013014 -11.939630 -10.734933 -7.288158 -0.079384 0.117390 -0.040553 -6.101140 2.296827 13.855589 -0.090012 0.035653 -0.009674 -17.809648 14.290491 11.137680 -0.255036 -0.015794 -0.019774 -9.173775 -7.647064 -9.290585 -0.251954 0.008889 -0.004499 24.544877 -8.065967 4.524344 -0.079647 -0.007301 -0.010293 -8.941039 9.047879 12.698355 
0.000000 0.000000 0.000000 -90.000009 0.000000 -0.000000 1.421158 0.353857 0.986148 97.247912 -29.381968 4.240374 0.073203 -0.089583 -0.008451 0.149775 11.379640 3.798389 0.033363 -0.381093 -0.005882 -3.040969 0.240088 0.091575 -0.012136 -0.404212 -0.045073 24.348393 26.976110 -18.195107 0.023998 -0.057168 0.116177 -12.633704 -13.477747 15.244296 -0.071051 -0.088940 -0.004460 -14.033971 -5.603989 4.776111 -0.040159 -0.388281 -0.008116 3.306770 4.305123 2.945395 0.015052 -0.405159 -0.042521 22.463628 -23.575501 21.043835 -0.022162 -0.049535 0.120046 -1.890369 18.790503 -22.405613 -0.002105 0.102865 -0.021646 3.950995 0.931928 -4.154244 0.003214 0.123188 -0.000947 -6.040876 -1.413740 0.737871 0.001655 0.048351 0.025579 0.435493 2.254390 0.186376 -0.003113 0.213543 -0.049644 -7.360771 -12.681091 -8.479955 0.004221 0.064949 0.050387 7.569403 -4.963130 10.457230 0.077248 0.119321 -0.035930 -4.882663 5.953817 -1.975628 0.087504 0.033302 -0.007308 -13.734056 -12.652827 -3.513475 0.261485 -0.013777 -0.026079 3.450441 6.277588 2.388285 0.244240 0.009760 -0.000379 29.916399 4.066824 -10.114602 0.078626 -0.009693 -0.013013 -11.746974 -10.538194 -7.506275 -0.079384 0.117390 -0.040552 -6.148330 2.137651 12.900558 -0.090012 0.035653 -0.009675 -17.538742 13.981908 11.608494 -0.255036 -0.015794 -0.019774 -10.592041 -8.024340 -9.520322 -0.251954 0.008889 -0.004499 23.906682 -7.966231 4.411569 -0.079647 -0.007301 -0.010293 -9.335809 8.856551 13.046001 
